<?xml version="1.0" encoding="iso-8859-1"?>
<!-- Generator: Adobe Illustrator 16.0.0, SVG Export Plug-In . SVG Version: 6.00 Build 0)  -->
<!DOCTYPE svg PUBLIC "-//W3C//DTD SVG 1.1//EN" "http://www.w3.org/Graphics/SVG/1.1/DTD/svg11.dtd">
<svg version="1.1" id="Capa_1" xmlns="http://www.w3.org/2000/svg" xmlns:xlink="http://www.w3.org/1999/xlink" x="0px" y="0px"
	 width="337.074px" height="337.073px" viewBox="0 0 337.074 337.073" style="enable-background:new 0 0 337.074 337.073;"
	 xml:space="preserve">
<g>
	<path d="M168.534,0C75.613,0,0,75.604,0,168.543c0,92.93,75.613,168.53,168.534,168.53c92.928,0,168.54-75.601,168.54-168.53
		C337.074,75.604,261.461,0,168.534,0z M206.649,135.997c8.983,0,16.268,7.292,16.268,16.27c0,8.978-7.284,16.271-16.268,16.271
		c-8.982,0-16.279-7.293-16.279-16.271C190.37,143.29,197.667,135.997,206.649,135.997z M130.424,135.997
		c8.989,0,16.282,7.292,16.282,16.27c0,8.978-7.293,16.271-16.282,16.271c-8.983,0-16.264-7.293-16.264-16.271
		C114.16,143.29,121.441,135.997,130.424,135.997z M282.202,202.098c-14.742,50.02-61.478,84.943-113.668,84.943
		c-52.62,0-98.214-33.818-113.428-84.145c-1.981-6.539,1.696-13.403,8.215-15.373c6.53-1.987,13.412,1.7,15.378,8.233
		c11.863,39.223,48.822,66.629,89.829,66.629c41.322,0,78.342-27.67,90.021-67.248c1.928-6.539,8.755-10.334,15.307-8.341
		C280.388,188.719,284.141,195.588,282.202,202.098z"/>
</g>
<g>
</g>
<g>
</g>
<g>
</g>
<g>
</g>
<g>
</g>
<g>
</g>
<g>
</g>
<g>
</g>
<g>
</g>
<g>
</g>
<g>
</g>
<g>
</g>
<g>
</g>
<g>
</g>
<g>
</g>
</svg>
